<?xml version="1.0" encoding="UTF-8" standalone="no"?><!DOCTYPE svg PUBLIC "-//W3C//DTD SVG 1.1//EN" "http://www.w3.org/Graphics/SVG/1.1/DTD/svg11.dtd"><svg xmlns="http://www.w3.org/2000/svg" width="118" height="28" viewBox="0 0 118 28" fill="none">
  <g clip-path="url(#clip0_1778_3998)">
    <path d="M10.4163 9.73688L13.9413 6.19641L17.4606 9.73363L13.9356 13.2741L10.4163 9.73688Z" fill="#1C1C1C"/>
    <path d="M9.67583 10.481L6.165 14.0106L9.68425 17.5465L13.1951 14.019L9.67583 10.481Z" fill="#1C1C1C"/>
    <path d="M10.4273 18.2909L13.917 21.7931L17.4258 18.2719L13.936 14.7656L10.4273 18.2909Z" fill="#1C1C1C"/>
    <path d="M14.679 14.019L18.1688 17.5275L21.6985 13.9873L18.2045 10.4767L14.679 14.019Z" fill="#1C1C1C"/>
    <path fill-rule="evenodd" clip-rule="evenodd" d="M0 13.9979C0 6.26405 6.23446 0 13.9318 0C21.6249 0 27.8677 6.26616 27.8677 13.9979C27.8677 21.7296 21.6291 28 13.9318 28C6.23446 28 0 21.7317 0 13.9979ZM18.9118 18.274L22.812 14.3595H22.8183C22.9151 14.258 22.9719 14.1248 22.9719 13.9852C22.9719 13.8456 22.9151 13.7124 22.8183 13.6151L18.9518 9.73021L22.5826 6.08006C22.7867 5.87281 22.7867 5.53867 22.5826 5.33142C22.3784 5.1284 22.0479 5.1284 21.8417 5.33142L18.2088 8.98369L14.3148 5.07341C14.1065 4.86828 13.776 4.86828 13.5697 5.07341L9.67794 8.98792L6.0345 5.32508C5.82613 5.12205 5.49778 5.12205 5.2915 5.32508C5.08734 5.53233 5.08734 5.86647 5.2915 6.0716L8.93494 9.73233L5.05366 13.6341C4.95263 13.7335 4.8979 13.8689 4.8979 14.0085C4.8979 14.148 4.95263 14.2813 5.05366 14.3807L8.94546 18.2888L5.31255 21.939C5.10839 22.1462 5.10839 22.4825 5.31255 22.6834C5.41569 22.787 5.54829 22.8378 5.683 22.8378C5.81771 22.8378 5.95031 22.787 6.05345 22.6834L9.68425 19.0353L13.5445 22.9097C13.6476 23.0112 13.7823 23.064 13.917 23.064C14.0517 23.064 14.1843 23.0112 14.2854 22.9097L18.1709 19.0163L21.8185 22.6834C21.9216 22.787 22.0543 22.8378 22.189 22.8378C22.3237 22.8378 22.4584 22.787 22.5615 22.6834C22.7636 22.4804 22.7636 22.1441 22.5615 21.939L18.9118 18.274Z" fill="#1C1C1C"/>
    <path d="M47.8614 21.461C47.8614 22.9943 46.6259 24.2356 45.0999 24.2356H38.657C37.5267 24.2356 36.6111 23.3157 36.6111 22.1801V19.8157C36.6111 19.7015 36.7038 19.6106 36.8153 19.6106H39.4737C39.5874 19.6106 39.6779 19.7036 39.6779 19.8157V20.8435C39.6779 21.2982 40.0441 21.6662 40.4966 21.6662H43.4623C44.1969 21.6662 44.7926 21.0677 44.7926 20.3296V18.5722C44.7926 18.1831 44.6242 17.813 44.3295 17.5592L37.3226 11.9211C36.87 11.5299 36.609 10.961 36.609 10.3625V6.45438C36.609 4.92115 37.8446 3.67976 39.3706 3.67976H45.8134C46.9437 3.67976 47.8593 4.5997 47.8593 5.73535V8.0997C47.8593 8.2139 47.7667 8.30483 47.6551 8.30483H44.9967C44.8831 8.30483 44.7926 8.21178 44.7926 8.0997V7.0719C44.7926 6.61722 44.4263 6.24924 43.9738 6.24924H41.0081C40.2735 6.24924 39.6779 6.84773 39.6779 7.5858V9.32417C39.6779 9.71329 39.8463 10.0834 40.1409 10.3372L47.1479 15.9752C47.6004 16.3665 47.8614 16.9353 47.8614 17.5338V21.461Z" fill="#1C1C1C"/>
    <path d="M106.91 24.2378H117.743L117.741 24.2314C117.895 24.2314 117.994 24.0707 117.924 23.9332L116.834 21.7761C116.798 21.7085 116.729 21.664 116.651 21.664H110.284C110.002 21.664 109.772 21.4335 109.772 21.1502V15.7553C109.772 15.4719 110.002 15.2414 110.284 15.2414H115.672C115.786 15.2414 115.876 15.1505 115.876 15.0363V12.8792C115.876 12.7671 115.786 12.674 115.672 12.674H110.284C110.002 12.674 109.772 12.4435 109.772 12.1601V6.76526C109.772 6.48187 110.002 6.25136 110.284 6.25136H116.649C116.727 6.25136 116.796 6.20906 116.832 6.13928L117.924 3.98218C117.994 3.84683 117.895 3.68399 117.741 3.68399H106.91C106.798 3.68399 106.706 3.77492 106.706 3.88912V24.0326C106.706 24.1447 106.796 24.2378 106.91 24.2378Z" fill="#1C1C1C"/>
    <path d="M89.6441 3.88912V24.0326C89.6441 24.1468 89.5514 24.2378 89.4399 24.2378H85.6365C85.5502 24.2378 85.4723 24.1828 85.4428 24.1003L80.465 9.60967C80.3639 9.31359 79.9282 9.38761 79.9282 9.7006V24.0326C79.9282 24.1468 79.8356 24.2378 79.7241 24.2378H77.0657C76.952 24.2378 76.8615 24.1447 76.8615 24.0326V3.88912C76.8615 3.77492 76.9541 3.68399 77.0657 3.68399H80.8691C80.9554 3.68399 81.0333 3.73897 81.0627 3.82145L86.0448 18.3375C86.1459 18.6335 86.5816 18.5595 86.5816 18.2465L86.5773 3.88912C86.5773 3.77492 86.67 3.68399 86.7815 3.68399H89.4399C89.5536 3.68399 89.6441 3.77704 89.6441 3.88912Z" fill="#1C1C1C"/>
    <path d="M61.6984 6.25347V3.88912H61.7026C61.7026 3.77704 61.6121 3.68399 61.4985 3.68399H50.042C49.9304 3.68399 49.8378 3.77492 49.8378 3.88912V6.25347C49.8378 6.36556 49.9283 6.45861 50.042 6.45861H53.7233C54.0053 6.45861 54.2348 6.68912 54.2348 6.97251V24.0326C54.2348 24.1447 54.3253 24.2378 54.4389 24.2378H57.0973C57.2089 24.2378 57.3015 24.1468 57.3015 24.0326V6.97251C57.3015 6.68912 57.5309 6.45861 57.813 6.45861H61.4943C61.6058 6.45861 61.6984 6.36767 61.6984 6.25347Z" fill="#1C1C1C"/>
    <path d="M68.2591 9.67946C68.1876 9.36012 67.7329 9.36012 67.6614 9.67946L65.0977 21.0402C65.0261 21.3616 65.2682 21.6662 65.5965 21.6662H67.7687C67.8992 21.6662 67.996 21.7888 67.9687 21.9157L67.4867 24.0728C67.4656 24.1659 67.3835 24.2335 67.2867 24.2335H61.57C61.4395 24.2335 61.3427 24.1109 61.3701 23.9819L65.8807 3.83837C65.9018 3.74532 65.9838 3.67764 66.0807 3.67764H69.8441C69.9388 3.67764 70.023 3.74532 70.044 3.83837L74.5546 23.9819C74.5841 24.1109 74.4852 24.2335 74.3547 24.2335H71.7047C71.61 24.2335 71.5258 24.1659 71.5048 24.0728L68.2591 9.67523V9.67946Z" fill="#1C1C1C"/>
    <path d="M99.9261 6.25136C100.379 6.25136 100.745 6.61934 100.745 7.07402V8.10393C100.745 8.21601 100.835 8.30906 100.949 8.30906H103.607C103.719 8.30906 103.812 8.21813 103.812 8.10393V5.73958C103.812 4.60393 102.896 3.68399 101.766 3.68399H95.3229C93.7969 3.68399 92.5613 4.92538 92.5613 6.45861V21.4631C92.5613 22.9964 93.7969 24.2378 95.3229 24.2378H101.766C102.896 24.2378 103.812 23.3178 103.812 22.1822V19.8178C103.812 19.7057 103.721 19.6127 103.607 19.6127H100.949C100.837 19.6127 100.745 19.7036 100.745 19.8178V20.8456C100.745 21.3003 100.379 21.6683 99.9261 21.6683H96.9604C96.2258 21.6683 95.6302 21.0698 95.6302 20.3317V7.58792C95.6302 6.84985 96.2258 6.25136 96.9604 6.25136H99.9261Z" fill="#1C1C1C"/>
  </g>
  <defs>
    <clipPath id="clip0_1778_3998">
      <rect width="118" height="28" fill="white"/>
    </clipPath>
  </defs>
</svg>